<?xml version="1.0" encoding="utf-8"?>
<!-- Generator: Adobe Illustrator 22.1.0, SVG Export Plug-In . SVG Version: 6.00 Build 0)  -->
<svg version="1.1" id="Слой_1" xmlns="http://www.w3.org/2000/svg" xmlns:xlink="http://www.w3.org/1999/xlink" x="0px" y="0px"
	 viewBox="0 0 500 500" style="enable-background:new 0 0 500 500;" xml:space="preserve">
<g>
	<path d="M279.3,337.2c-77.9,32.6-159.4,7.4-203.7-54.1c-38.7-53.8-40.6-130.9-3.4-186.7c38.1-57.2,107.6-84.8,174.4-69.3
		C313.9,42.7,364.1,97.3,372.8,164c5.4,40.8-2.5,78.6-25,113c-4.8,7.3-4.4,11.9,1,18.4c33,40.1,65.6,80.5,98.4,120.8
		c10.4,12.8,10,17-2.6,27.4c-11.3,9.3-22.5,18.7-34.1,27.7c-11.4,8.8-16.3,8.1-25.5-3.3c-34.2-42-68.3-84.1-102.4-126.1
		C281.5,340.4,280.5,338.9,279.3,337.2z M350.9,186.9c0-77.1-63.6-140.4-141.1-140.4c-77-0.1-140.8,63.5-141.2,140.7
		c-0.3,77.3,64.1,141.3,142.1,141.1C287.7,328.1,350.9,264.3,350.9,186.9z M300.4,325.7c33.8,41.4,66.6,81.8,100,122.7
		c8.9-7.4,16.7-13.8,25.2-20.8c-33.6-41.3-66.4-81.7-99.5-122.4C317.3,312.3,309.4,318.6,300.4,325.7z"/>
	<path d="M330.1,187.5c-0.1,67.8-53,120.5-120.9,120.3c-66.9-0.2-120-53.4-120.1-120.1c0-67.5,53.3-121,120.6-121.1
		C277.2,66.5,330.2,119.8,330.1,187.5z M306.9,188.6c0.7-53.4-42.9-98-96.4-98.7c-52.4-0.6-96.8,43.1-97.4,96.1
		c-0.6,53.2,41.9,97.3,94.9,98.4C261.3,285.5,306.2,242.1,306.9,188.6z"/>
</g>
</svg>
