<?xml version="1.0" encoding="utf-8"?>
<!-- Generator: Adobe Illustrator 22.1.0, SVG Export Plug-In . SVG Version: 6.00 Build 0)  -->
<svg version="1.1" id="Слой_1" xmlns="http://www.w3.org/2000/svg" xmlns:xlink="http://www.w3.org/1999/xlink" x="0px" y="0px"
	 viewBox="0 0 500 500" style="enable-background:new 0 0 500 500;" xml:space="preserve">
<g>
	<path d="M257.9,61.3c96.2-6.4,203,85,195.7,206.9c-5.4,91.5-83.4,181.8-190.7,183.5c-112.7,1.7-200.3-82.9-201.2-195.1
		C60.9,146.1,153,57.9,257.9,61.3z M272.2,106.1c1,13.3-3.9,21.6-13.2,22.2c-9.6,0.6-14.6-6.4-14.6-20.6c0-1.3,0-2.7,0-4
		c0.4-9.6-2.9-13.5-13.6-11.3c-69.1,14-113.3,54.9-133.4,122.1c-7.8,26.2-7.3,25.9,19.5,29.5c4.6,0.6,12.1,7.1,11.9,10.5
		c-0.3,5.2-5.3,11-9.8,14.9c-2.3,2-7.6,0.8-11.6,0.9c-14.4,0.2-16.8,2.6-12.9,16.7c4,14.5,8.1,29.2,14.7,42.5
		c24.7,49.7,65.6,78.9,119.3,90.7c13.1,2.9,15.9,0.3,15.7-12.8c-0.1-4-1.2-9,0.7-11.7c3.2-4.5,8.5-10.2,13-10.2
		c4.6,0,10.1,5.5,13.4,9.9c1.9,2.5,0.6,7.7,0.3,11.6c-0.8,12.5,2.1,15.3,14.3,13.5c65.1-10,121.8-64.8,135.2-130.5
		c3.8-18.9,3.5-19.3-16-19.7c-12.8-0.3-20.6-5.9-19.1-14.8c2-11.4,9.5-14.1,20.7-12.6c14.3,1.9,17.5-2.2,15-16.5
		C410.2,159.6,352.7,102.5,287,92.5C273.6,90.5,271.1,92.8,272.2,106.1z"/>
	<path d="M260.5,278.7c-6.1-2.1-11.2-2.3-13.3-4.9c-16-20-41-18.6-61.9-26.9c-2-0.8-5-0.6-6.2-2c-2.8-3.4-4.8-7.4-7.1-11.2
		c4-1.5,8.4-5,11.9-4.2c15.1,3.6,29.7,9,44.8,12.4c5.3,1.2,11.4-1.5,17.2-2.1c7.4-0.8,14.8-1.4,22.2-1.8c5.7-0.3,12.3,1.5,17.1-0.8
		c29.3-13.6,58.2-28,87.3-42.2c1.2-0.6,2.4-1.7,3.6-1.7c6.5,0.2,13.1,0.7,19.6,1.1c-3.8,4.6-6.6,11-11.4,13.4
		c-29.6,15-59.8,28.8-89.4,43.8c-7.1,3.6-12.5,10.4-18.9,15.5C270.7,271.2,265.2,275.1,260.5,278.7z"/>
</g>
</svg>
