<?xml version="1.0" encoding="utf-8"?>
<!-- Generator: Adobe Illustrator 22.1.0, SVG Export Plug-In . SVG Version: 6.00 Build 0)  -->
<svg version="1.1" id="Слой_1" xmlns="http://www.w3.org/2000/svg" xmlns:xlink="http://www.w3.org/1999/xlink" x="0px" y="0px"
	 viewBox="0 0 500 500" style="enable-background:new 0 0 500 500;" xml:space="preserve">
<g id="Слой_2_1_">
	<rect width="23.9" height="461"/>
	<rect x="477" y="0.3" width="23" height="465"/>
	<rect x="0.6" width="476.4" height="24.5"/>
	<path d="M52.9,31c1.4,0.1,2.7,0.6,3.9,1.8C55.6,31.7,54.3,31.2,52.9,31h-2.1c-2.9,0.2-6,1.2-9.2,0.5c3.1,0.8,6.3-0.2,9.2-0.5H34.7
		v430h22.4V31H52.9z"/>
	<rect x="440.9" y="78.5" width="22.1" height="421"/>
	<rect x="237.9" y="-131.9" transform="matrix(0.1239 -0.9923 0.9923 0.1239 152.795 304.795)" width="22.1" height="395.5"/>
	
		<rect x="237.9" y="271.1" transform="matrix(9.950496e-02 -0.995 0.995 9.950496e-02 -242.3209 669.9803)" width="22.1" height="395.5"/>
	<circle cx="388.8" cy="299.5" r="10.1"/>
</g>
</svg>
