<?xml version="1.0" encoding="utf-8"?>
<!-- Generator: Adobe Illustrator 22.1.0, SVG Export Plug-In . SVG Version: 6.00 Build 0)  -->
<svg version="1.1" id="Слой_1" xmlns="http://www.w3.org/2000/svg" xmlns:xlink="http://www.w3.org/1999/xlink" x="0px" y="0px"
	 viewBox="0 0 500 500" style="enable-background:new 0 0 500 500;" xml:space="preserve">
<g>
	<path d="M251.4,55.9c103.1,0.1,193.1,83.7,192.3,195.6c-0.7,107.6-85.6,193.3-195,192.7C140.5,443.6,53.4,355.7,56.4,244
		C59.1,140,144.7,55.4,251.4,55.9z M250.1,85.5C162.3,85.1,86,159.2,85.7,249.4c-0.3,91,75.8,165.8,164.4,165.3
		c88.8-0.5,164.4-70.3,164.8-164.1C415.4,156.6,339,86,250.1,85.5z"/>
	<path d="M273,300.2c6.7-7.4,13.4-14.8,20-22.2c8.3-9.2,18.4-10,27.5-3c8.5,6.6,11,15.9,2.6,25.5c-19.9,22.7-39.1,46.2-59.9,68.1
		c-9.3,9.9-21,6.8-29.7-2.9c-18.5-20.6-37-41.3-54.8-62.5c-7.4-8.8-8-20.2,0.8-27.9c8.5-7.4,18.7-6.7,27.2,2.9
		c6.7,7.5,14.2,14.4,23.8,23.9c0.6-6.8,1.2-11,1.3-15.1c0.1-45.4,0-90.7,0.1-136.1c0-16.9,6.3-25.4,18-25.5
		c12-0.1,19.1,10,19.1,26.4c-0.1,48.9,0,97.7,0,146.6C270.4,299,271.7,299.6,273,300.2z"/>
</g>
</svg>
